<svg width="160" height="33" viewBox="0 0 160 33" fill="none" xmlns="http://www.w3.org/2000/svg">
<path d="M15.7826 31.5673C14.117 31.5673 12.5554 30.8281 11.4974 29.5414C10.4417 28.257 10.0236 26.5845 10.347 24.9536C10.4579 24.3945 10.5618 23.7569 10.6542 23.0547C10.779 22.1168 10.8552 21.2228 10.8898 20.3519L5.3849 14.0476C5.29481 13.946 5.20472 13.8328 5.12155 13.7196C4.28992 12.6085 3.31506 11.4072 2.23163 10.1575C1.95904 9.84328 1.69338 9.54297 1.43465 9.25652C-0.0368726 7.63484 -0.411107 5.29472 0.475967 3.29419C1.36304 1.29365 3.35203 0 5.54199 0H15.3345C17.4366 0 19.391 1.22204 20.315 3.11169C20.315 3.114 20.3173 3.11862 20.3196 3.12093C21.2413 1.22435 23.1934 0 25.3025 0H35.0695C37.2595 0 39.2485 1.29365 40.1356 3.29419C41.0226 5.29472 40.6461 7.63715 39.1746 9.25883C38.9181 9.54297 38.6525 9.84097 38.3799 10.1575C37.3126 11.3887 36.3701 12.5669 35.5778 13.6642C35.483 13.7958 35.3814 13.9229 35.2774 14.043L29.7679 20.4073C29.8025 21.2736 29.8811 22.1676 30.0035 23.0755C30.0936 23.7546 30.1976 24.3945 30.3108 24.9813C30.6249 26.6076 30.1999 28.2755 29.1442 29.553C28.0884 30.8327 26.5291 31.5673 24.8682 31.5673H15.7826Z" fill="#2E47E5"/>
<path d="M15.7825 27.4092C14.9116 27.4092 14.2556 26.6169 14.4242 25.7644C14.5559 25.0991 14.6714 24.3761 14.7753 23.5999C14.9694 22.1237 15.0664 20.7146 15.0664 19.3355C15.0664 19.0005 14.9463 18.6771 14.7245 18.4253L8.515 11.3125C8.49421 11.2871 8.47341 11.264 8.45493 11.2363C7.554 10.0327 6.52601 8.7645 5.37097 7.43158C5.07759 7.09431 4.79114 6.77089 4.51623 6.46596C3.71232 5.57658 4.34298 4.15587 5.54191 4.15587H15.3344C15.8634 4.15587 16.3462 4.46081 16.5772 4.93437C17.4804 6.78475 18.2982 8.2609 19.0167 9.38129C19.0421 9.42057 19.0698 9.45984 19.0998 9.4968L19.9846 10.6126C20.0631 10.7119 20.1833 10.7697 20.3103 10.7697C20.4397 10.7697 20.5598 10.7096 20.6383 10.6079L21.5347 9.4506C21.5554 9.42287 21.5762 9.39515 21.597 9.36512C22.394 8.1685 23.2164 6.69466 24.0526 4.94361C24.2813 4.46312 24.7665 4.15356 25.3001 4.15356C27.2198 4.15356 31.87 4.15356 35.0671 4.15356C36.2661 4.15356 36.899 5.57427 36.0928 6.46365C35.8156 6.76858 35.5315 7.092 35.2381 7.42927C34.0854 8.75757 33.0759 10.0235 32.2073 11.2271C32.1842 11.2571 32.1611 11.2871 32.1356 11.3171L25.9284 18.4877C25.7113 18.7395 25.5912 19.0606 25.5912 19.3932V19.4279C25.5912 20.7746 25.6882 22.1838 25.8822 23.6276C25.9839 24.3946 26.0994 25.1084 26.2264 25.7667C26.3905 26.6192 25.7344 27.4069 24.8681 27.4069H15.7825V27.4092Z" fill="#00FF00"/>
<path d="M45.6427 32.071C42.464 32.071 39.5972 31.5905 37.1208 30.6457C34.4157 29.6108 32.2904 28.1069 30.805 26.1734C29.218 24.1289 28.4141 21.7519 28.4141 19.1091C28.4141 13.9137 31.5812 9.70937 37.1069 7.57716C39.5949 6.6254 42.4617 6.14722 45.6427 6.14722C50.577 6.14722 54.6174 7.22372 57.6459 9.349C61.0949 11.7677 62.9198 15.1427 62.9198 19.1091C62.9198 23.0755 61.0972 26.4506 57.6482 28.8692C54.6197 30.9945 50.5794 32.071 45.645 32.071H45.6427Z" fill="#2E47E5"/>
<path d="M38.6062 26.7622C36.6126 25.9999 35.1041 24.9465 34.0992 23.6321C33.0782 22.3176 32.5746 20.8115 32.5746 19.1089C32.5746 15.72 34.6167 12.9964 38.6062 11.4556C40.5998 10.6933 42.9353 10.3052 45.6428 10.3052C49.7131 10.3052 52.9241 11.116 55.2573 12.7539C57.5905 14.3917 58.7594 16.4985 58.7594 19.1089C58.7594 21.7193 57.5928 23.8284 55.2573 25.464C52.9218 27.0995 49.7131 27.9127 45.6428 27.9127C42.9353 27.9127 40.5998 27.5246 38.6062 26.7622ZM49.2095 19.1089C49.2095 17.2285 47.8304 15.9788 45.6428 15.9788C44.5894 15.9788 43.73 16.2698 43.097 16.8381C42.4479 17.4064 42.1245 18.1687 42.1245 19.1089C42.1245 20.9732 43.5198 22.1906 45.6428 22.1906C47.7657 22.1906 49.2095 20.9916 49.2095 19.1089Z" fill="#00FF00"/>
<path d="M80.6128 32.0708C77.8638 32.0708 75.4174 31.4887 73.3776 30.3798C72.3196 31.1468 71.0421 31.5695 69.7 31.5695H63.0492C61.1272 31.5695 59.3092 30.7287 58.0664 29.2618C56.8189 27.7902 56.2853 25.8544 56.6018 23.9486C56.6803 23.4773 56.7519 22.9622 56.8143 22.4216C57.013 20.7214 57.11 19.1713 57.11 17.6836V13.8581C57.11 12.382 57.0107 10.7834 56.8143 9.10394L56.6919 8.0644C56.4516 6.01998 57.0984 3.964 58.466 2.42317C59.8336 0.884651 61.8018 0.00219727 63.8601 0.00219727H70.1481C72.0008 0.00219727 73.7473 0.817658 74.9369 2.23836C75.9811 3.48581 76.4893 5.07515 76.3738 6.67835C77.6906 6.32953 79.1113 6.14703 80.6128 6.14703C84.6878 6.14703 87.9959 7.36445 90.4469 9.76925C92.8909 12.1902 94.1754 15.4151 94.1754 19.1112C94.1754 22.8074 92.8771 26.0346 90.5162 28.3631C88.0582 30.791 84.6324 32.0731 80.6128 32.0731V32.0708Z" fill="#2E47E5"/>
<path d="M72.2526 23.5907C72.1186 23.3458 71.8599 23.1933 71.5804 23.1933V23.3227C71.5804 23.8194 71.6381 24.3299 71.7559 24.852C72.0516 26.1641 71.0421 27.4092 69.6976 27.4092H63.0469C61.5708 27.4092 60.4596 26.0809 60.7022 24.6256C60.7923 24.085 60.8731 23.5098 60.9447 22.8999C61.1549 21.1004 61.2681 19.3655 61.2681 17.6791V13.8536C61.2681 12.1673 61.1549 10.4162 60.9447 8.61667L60.8223 7.57482C60.6075 5.75447 62.0305 4.1582 63.8624 4.1582H70.1504C71.4441 4.1582 72.4305 5.3248 72.2018 6.59766C72.0909 7.21907 71.9916 7.89362 71.9084 8.61898C71.6982 10.4185 71.585 12.1696 71.585 13.856V14.7846C71.585 14.9348 71.7051 15.0549 71.8553 15.0549C71.9569 15.0549 72.0493 14.9948 72.0955 14.9047C73.5347 12.0125 76.4708 10.3053 80.6151 10.3053C83.5836 10.3053 85.8844 11.1162 87.5385 12.7379C89.1925 14.3757 90.0195 16.4987 90.0195 19.1091C90.0195 24.152 86.6953 27.9128 80.6151 27.9128C76.591 27.9128 73.7334 26.3166 72.2549 23.593L72.2526 23.5907ZM79.266 21.3291C80.0284 20.7608 80.4165 20.0308 80.4165 19.1068C80.4165 18.1827 80.0284 17.4366 79.266 16.8683C78.4875 16.3 77.4503 16.0251 76.1682 16.0251C74.8861 16.0251 73.8651 16.3 73.1027 16.8683C72.3404 17.4366 71.9523 18.1827 71.9523 19.1068C71.9523 20.0308 72.3404 20.7608 73.1027 21.3291C73.8651 21.8974 74.8861 22.1884 76.1682 22.1884C77.4503 22.1884 78.4875 21.8974 79.266 21.3291Z" fill="#00FF00"/>
<path d="M98.3797 32.0709C94.9238 32.0709 92.0916 31.3132 89.9594 29.8186C87.4183 28.0675 86.0184 25.4779 86.0184 22.5279C86.0184 20.0492 87.0002 17.8246 88.809 16.1359C88.809 16.092 88.809 16.0481 88.809 16.0042V13.4331C88.809 10.2359 91.0913 7.50542 94.2354 6.94176C95.1455 6.77774 96.1758 6.62989 97.2962 6.49822L97.3309 6.4936C99.4793 6.25797 101.387 6.14478 103.166 6.14478C107.62 6.14478 111.221 6.77312 114.174 8.06677L114.204 8.08063C118.251 9.89174 120.573 13.3084 120.573 17.455V18.8179C120.573 20.5782 120.656 22.0313 120.82 23.1378C120.924 23.8331 121.067 24.4938 121.247 25.0944C121.7 26.6122 121.407 28.2754 120.462 29.5437C119.517 30.8119 118.011 31.5696 116.428 31.5696H107.156C106.296 31.5696 105.462 31.3478 104.728 30.9436C102.917 31.6851 100.775 32.0732 98.3843 32.0732L98.3797 32.0709Z" fill="#2E47E5"/>
<path d="M92.3319 26.4042C90.8881 25.4154 90.1766 24.1172 90.1766 22.5278C90.1766 20.9385 90.8904 19.6264 92.3157 18.6353C93.741 17.6443 95.7693 17.143 98.3797 17.143C102.12 17.143 104.737 18.2334 105.892 20.0838C105.952 20.1785 106.054 20.2385 106.167 20.2385C106.345 20.2385 106.488 20.0953 106.488 19.9174V18.6654C106.488 17.6443 105.985 16.882 104.98 16.346C103.975 15.8101 102.612 15.5514 100.909 15.5514C98.2711 15.5514 96.035 15.9672 94.1961 16.7965C93.6186 17.0575 92.9649 16.6325 92.9649 15.9995V13.4284C92.9649 12.2503 93.808 11.2384 94.9677 11.0305C95.8132 10.8781 96.7511 10.7441 97.7814 10.6239C99.7103 10.4137 101.494 10.3005 103.164 10.3005C106.941 10.3005 110.023 10.788 112.504 11.8737C114.968 12.9756 116.412 14.9069 116.412 17.4526V18.8155C116.412 20.793 116.509 22.4308 116.703 23.7452C116.835 24.6346 117.02 25.4801 117.26 26.2863C117.429 26.8477 117.011 27.4114 116.426 27.4114H107.153C106.562 27.4114 106.132 26.8338 106.319 26.2748C106.453 25.8751 106.52 25.4316 106.52 24.9465V24.7524C106.239 24.7524 105.978 24.8887 105.811 25.1174C104.552 26.8616 101.979 27.915 98.3797 27.915C95.7693 27.915 93.7595 27.4114 92.3319 26.4065V26.4042ZM106.082 22.3014C106.082 21.4583 104.947 20.9061 103.065 20.9061C101.182 20.9061 100.048 21.4583 100.048 22.3014C100.048 23.1446 101.182 23.6967 103.065 23.6967C104.947 23.6967 106.082 23.1285 106.082 22.3014Z" fill="#00FF00"/>
<path d="M126.232 32.071C122.776 32.071 119.944 31.3133 117.812 29.8187C115.271 28.0676 113.871 25.478 113.871 22.528C113.871 20.0285 114.867 17.7877 116.706 16.0944C116.676 15.8588 116.659 15.6209 116.659 15.3783V13.5995C116.659 10.2869 119.034 7.47088 122.305 6.9026C123.16 6.75475 124.116 6.61846 125.149 6.49602L125.184 6.4914C127.332 6.25577 129.24 6.14258 131.019 6.14258C135.473 6.14258 139.074 6.77092 142.026 8.06457L142.056 8.07843C146.104 9.88954 148.425 13.3062 148.425 17.4528V18.8157C148.425 20.576 148.509 22.0291 148.673 23.1356C148.777 23.8309 148.92 24.4916 149.1 25.0922C149.553 26.61 149.259 28.2732 148.315 29.5415C147.37 30.8097 145.864 31.5674 144.281 31.5674H135.008C134.149 31.5674 133.315 31.3456 132.58 30.9414C130.769 31.6829 128.628 32.071 126.237 32.071H126.232Z" fill="#2E47E5"/>
<path d="M120.185 26.4043C118.741 25.4156 118.029 24.1173 118.029 22.5279C118.029 20.9386 118.743 19.6265 120.168 18.6354C121.594 17.6444 123.622 17.1431 126.232 17.1431C129.972 17.1431 132.59 18.2335 133.745 20.0839C133.805 20.1786 133.906 20.2386 134.02 20.2386C134.198 20.2386 134.341 20.0954 134.341 19.9175V18.6655C134.341 17.6444 133.837 16.8821 132.832 16.3461C131.827 15.8102 130.464 15.5515 128.762 15.5515C126.376 15.5515 124.32 15.8911 122.589 16.5679C121.739 16.9006 120.818 16.2884 120.818 15.3736V13.5948C120.818 12.3081 121.746 11.2154 123.014 10.996C123.809 10.8574 124.68 10.7349 125.632 10.6218C127.561 10.4115 129.344 10.2983 131.014 10.2983C134.791 10.2983 137.873 10.7858 140.354 11.8715C142.819 12.9734 144.263 14.9047 144.263 17.4504V18.8133C144.263 20.7908 144.36 22.4286 144.554 23.743C144.685 24.6324 144.87 25.4779 145.11 26.2841C145.279 26.8455 144.861 27.4092 144.276 27.4092H135.004C134.412 27.4092 133.983 26.8316 134.17 26.2726C134.304 25.873 134.371 25.4294 134.371 24.9443V24.7502C134.089 24.7502 133.828 24.8865 133.662 25.1152C132.403 26.8594 129.829 27.9128 126.23 27.9128C123.62 27.9128 121.61 27.4092 120.182 26.4043H120.185ZM133.934 22.3016C133.934 21.4584 132.8 20.9063 130.917 20.9063C129.034 20.9063 127.9 21.4584 127.9 22.3016C127.9 23.1447 129.034 23.6968 130.917 23.6968C132.8 23.6968 133.934 23.1286 133.934 22.3016Z" fill="#00FF00"/>
<path d="M151.003 31.9415C148.763 31.9415 146.739 31.1907 145.154 29.7677C143.438 28.2454 142.532 26.1917 142.532 23.8262C142.532 21.4606 143.445 19.4116 145.171 17.8869C146.76 16.4847 148.777 15.7432 151.003 15.7432C153.23 15.7432 155.263 16.4847 156.853 17.8869L156.883 17.9146C158.578 19.4416 159.475 21.4976 159.475 23.8585C159.475 26.2194 158.562 28.2731 156.836 29.7977C155.247 31.2 153.23 31.9415 151.003 31.9415Z" fill="#2E47E5"/>
<path d="M151.003 27.7834C149.772 27.7834 148.749 27.4115 147.922 26.6653C147.095 25.9353 146.691 24.979 146.691 23.8285C146.691 22.6781 147.095 21.7379 147.922 21.0079C148.749 20.2779 149.77 19.906 151.003 19.906C152.237 19.906 153.274 20.2779 154.101 21.0079C154.912 21.7379 155.316 22.6943 155.316 23.8609C155.316 25.0275 154.912 25.9515 154.085 26.6815C153.258 27.4115 152.237 27.7834 151.003 27.7834Z" fill="#BC75F5"/>
</svg>
